<svg width="23" height="24" viewBox="0 0 23 24" fill="none" xmlns="http://www.w3.org/2000/svg">
<path d="M12.5511 1.09481C12.5511 0.504472 12.0668 0 11.5 0C10.9332 0 10.4592 0.504472 10.4592 1.09481V3.2737C10.4592 3.86404 10.9332 4.35778 11.5 4.35778C12.0668 4.35778 12.5511 3.86404 12.5511 3.2737V1.09481ZM16.6729 5.08766C16.2711 5.50626 16.2711 6.20394 16.6832 6.62254C17.0748 7.04114 17.7549 7.04114 18.1568 6.61181L19.6407 5.06619C20.0426 4.65832 20.0426 3.93918 19.6407 3.52057C19.2388 3.1127 18.569 3.1127 18.1671 3.53131L16.6729 5.08766ZM4.84319 6.61181C5.23477 7.04114 5.91487 7.04114 6.31676 6.62254C6.71864 6.21467 6.71864 5.49553 6.32706 5.08766L4.84319 3.53131C4.45161 3.12343 3.77151 3.1127 3.36962 3.52057C2.96774 3.93918 2.96774 4.65832 3.35932 5.05546L4.84319 6.61181ZM11.5 6.34347C8.53226 6.34347 6.06944 8.89803 6.06944 12C6.06944 15.102 8.53226 17.6565 11.5 17.6565C14.4677 17.6565 16.9202 15.102 16.9202 12C16.9202 8.89803 14.4677 6.34347 11.5 6.34347ZM11.5 8.37209C13.3961 8.37209 14.983 10.0143 14.983 12C14.983 13.9857 13.3961 15.6279 11.5 15.6279C9.59364 15.6279 8.00672 13.9857 8.00672 12C8.00672 10.0143 9.59364 8.37209 11.5 8.37209ZM21.9592 13.0948C22.526 13.0948 23 12.5903 23 12C23 11.4097 22.526 10.9159 21.9592 10.9159H19.8674C19.3006 10.9159 18.8266 11.4097 18.8266 12C18.8266 12.5903 19.3006 13.0948 19.8674 13.0948H21.9592ZM1.05108 10.9159C0.474014 10.9159 0 11.4097 0 12C0 12.5903 0.474014 13.0948 1.05108 13.0948H3.13262C3.69937 13.0948 4.18369 12.5903 4.18369 12C4.18369 11.4097 3.69937 10.9159 3.13262 10.9159H1.05108ZM18.1465 17.3882C17.7446 16.9696 17.0748 16.9803 16.6729 17.3989C16.2711 17.8068 16.2711 18.5045 16.6832 18.9338L18.1774 20.4794C18.569 20.898 19.2491 20.8873 19.651 20.4687C20.0426 20.0501 20.0426 19.3524 19.6407 18.9338L18.1465 17.3882ZM3.35932 18.9231C2.95744 19.3417 2.94713 20.0501 3.33871 20.458C3.74059 20.8766 4.431 20.8873 4.82258 20.4794L6.31676 18.9338C6.71864 18.5152 6.71864 17.8068 6.32706 17.3989C5.92518 16.9803 5.24507 16.9803 4.84319 17.3882L3.35932 18.9231ZM12.5511 20.7263C12.5511 20.136 12.0668 19.6422 11.5 19.6422C10.9332 19.6422 10.4592 20.136 10.4592 20.7263V22.9052C10.4592 23.4955 10.9332 24 11.5 24C12.0668 24 12.5511 23.4955 12.5511 22.9052V20.7263Z" fill="black"/>
</svg>
